<?xml version="1.0" standalone="no"?>
<!DOCTYPE svg PUBLIC "-//W3C//DTD SVG 20010904//EN"
 "http://www.w3.org/TR/2001/REC-SVG-20010904/DTD/svg10.dtd">
<svg version="1.0" xmlns="http://www.w3.org/2000/svg"
 width="2000.000000pt" height="2000.000000pt" viewBox="0 0 2000.000000 2000.000000"
 preserveAspectRatio="xMidYMid meet">
<metadata>
Created by potrace 1.11, written by Peter Selinger 2001-2013
</metadata>
<g transform="translate(0.000000,2000.000000) scale(0.100000,-0.100000)"
fill="#000000" stroke="none">
<path d="M9619 19766 c-2 -2 -74 -7 -159 -11 -85 -4 -168 -8 -185 -10 -16 -1
-68 -6 -115 -10 -47 -3 -103 -8 -125 -11 -133 -12 -162 -15 -185 -19 -14 -2
-50 -7 -80 -10 -30 -4 -67 -8 -81 -11 -15 -2 -47 -6 -70 -9 -24 -3 -100 -15
-169 -26 -69 -11 -141 -22 -160 -25 -19 -3 -42 -7 -50 -9 -8 -3 -33 -7 -55
-11 -22 -3 -103 -19 -180 -35 -77 -17 -151 -32 -165 -35 -14 -3 -106 -25 -205
-49 -583 -143 -1160 -343 -1720 -595 -238 -106 -727 -362 -927 -483 -42 -26
-81 -47 -86 -47 -6 0 -12 -4 -14 -8 -1 -4 -57 -41 -123 -81 -317 -194 -862
-589 -1090 -789 -17 -15 -57 -49 -90 -77 -33 -27 -62 -52 -65 -55 -3 -3 -23
-20 -45 -39 -104 -88 -278 -253 -465 -441 -206 -206 -267 -270 -395 -414 -38
-44 -75 -84 -80 -90 -6 -6 -34 -39 -62 -73 -28 -34 -61 -72 -73 -85 -12 -13
-40 -48 -63 -78 -23 -30 -44 -57 -47 -60 -5 -4 -71 -86 -93 -115 -4 -5 -35
-47 -70 -91 -113 -148 -208 -282 -337 -474 -132 -197 -224 -341 -285 -448 -6
-9 -34 -57 -63 -105 -28 -49 -52 -91 -52 -92 0 -2 -13 -26 -28 -52 -63 -107
-332 -631 -332 -647 0 -2 -16 -39 -36 -83 -20 -43 -42 -91 -49 -108 -7 -16
-24 -55 -38 -85 -49 -111 -177 -440 -240 -620 -82 -234 -219 -686 -242 -800
-2 -8 -12 -51 -24 -95 -33 -131 -96 -414 -107 -485 -3 -19 -7 -42 -9 -50 -4
-14 -8 -37 -20 -112 -3 -18 -10 -55 -15 -83 -9 -50 -18 -105 -25 -160 -3 -16
-9 -61 -14 -100 -11 -76 -17 -123 -26 -200 -3 -27 -8 -66 -10 -85 -12 -99 -20
-188 -30 -330 -4 -52 -8 -111 -10 -130 -23 -226 -22 -1164 0 -1281 2 -10 6
-66 10 -126 3 -59 7 -119 10 -133 2 -14 7 -56 10 -95 3 -38 8 -81 10 -95 2
-14 7 -52 10 -85 3 -33 8 -71 10 -85 2 -14 9 -61 15 -106 6 -44 12 -89 14
-100 2 -10 7 -41 10 -69 6 -41 48 -280 71 -400 76 -403 258 -1052 403 -1440
76 -205 150 -392 172 -440 5 -11 34 -76 64 -145 87 -201 245 -529 324 -673 16
-28 46 -83 67 -122 165 -304 452 -757 669 -1053 104 -143 395 -512 426 -542 3
-3 21 -25 41 -50 20 -25 49 -59 65 -76 16 -17 56 -62 89 -99 125 -143 186
-206 400 -420 193 -192 314 -307 405 -385 14 -11 39 -33 55 -48 17 -15 73 -63
125 -107 52 -44 97 -82 100 -85 37 -37 373 -295 550 -423 36 -25 70 -50 75
-55 19 -15 420 -279 450 -296 17 -9 57 -33 90 -54 240 -151 666 -377 1000
-532 199 -92 669 -285 683 -280 1 0 15 -6 30 -13 65 -34 646 -221 812 -262 35
-8 100 -25 175 -44 187 -49 503 -117 680 -147 31 -5 126 -21 160 -28 24 -4
109 -17 150 -22 17 -2 62 -8 100 -13 141 -21 197 -27 300 -36 44 -4 88 -9 97
-10 9 -2 59 -7 110 -10 51 -4 109 -9 128 -11 313 -30 1158 -24 1525 10 33 3
89 8 125 11 36 3 81 8 100 10 19 3 60 7 90 10 30 4 66 8 80 10 14 2 48 6 75
10 28 3 66 8 85 11 19 2 53 7 75 10 40 5 308 50 355 60 14 2 59 11 100 19 260
48 643 143 950 236 706 214 1377 501 2020 867 102 57 201 117 390 233 305 187
862 596 1116 818 37 33 137 120 188 164 198 172 610 584 806 807 36 41 72 81
80 90 13 14 61 71 135 159 11 13 25 29 30 35 64 71 359 459 476 626 122 173
337 507 401 620 14 25 48 84 77 132 28 48 51 90 51 93 0 4 8 19 18 33 79 114
373 721 492 1017 18 44 41 99 51 122 10 24 19 47 19 53 0 6 5 18 10 28 13 21
54 133 136 371 147 427 265 873 359 1361 2 10 6 34 9 54 3 19 10 55 15 78 5
24 12 63 15 88 3 25 8 54 10 65 2 11 7 42 10 68 4 27 9 56 10 65 5 28 16 104
21 157 3 28 8 61 10 75 6 44 15 123 21 190 3 36 7 79 9 95 1 17 6 73 10 125 3
52 8 115 10 140 19 247 24 757 11 1055 -7 164 -9 196 -22 353 -3 40 -7 96 -9
125 -2 28 -6 70 -9 92 -3 22 -8 67 -11 100 -5 54 -32 270 -40 320 -2 11 -6 40
-9 65 -12 81 -67 403 -70 409 -2 3 -7 28 -10 55 -4 27 -9 52 -11 56 -2 3 -13
53 -25 111 -69 342 -257 987 -382 1313 -70 183 -142 364 -160 406 -11 25 -26
59 -33 75 -59 141 -151 339 -235 507 -84 167 -190 369 -200 383 -4 6 -17 26
-27 45 -23 41 -90 158 -103 180 -5 8 -35 58 -68 111 -32 52 -61 102 -65 110
-11 24 -315 479 -327 489 -3 3 -38 50 -77 106 -178 249 -465 598 -718 873
-104 114 -489 497 -579 576 -43 39 -93 84 -111 101 -34 32 -211 184 -284 244
-23 19 -53 43 -64 54 -12 10 -38 30 -57 45 -19 14 -41 32 -48 38 -7 7 -100 77
-205 156 -599 449 -1226 816 -1932 1132 -359 161 -841 335 -1258 455 -144 41
-449 120 -522 134 -11 3 -54 12 -95 21 -86 20 -152 33 -195 41 -16 2 -61 11
-100 19 -68 14 -215 38 -305 50 -25 3 -52 8 -60 10 -8 2 -37 6 -65 10 -27 3
-63 8 -80 10 -36 5 -172 22 -235 29 -25 3 -76 8 -115 11 -38 3 -90 8 -115 10
-25 2 -85 7 -135 10 -49 4 -115 9 -145 11 -66 6 -936 15 -941 10z"/>
</g>
</svg>
